<?xml version="1.0" encoding="UTF-8"?>
<!DOCTYPE svg PUBLIC "-//W3C//DTD SVG 1.1//EN" "http://www.w3.org/Graphics/SVG/1.1/DTD/svg11.dtd">
<!-- Creator: CorelDRAW 2019 (64-Bit) -->
<svg xmlns="http://www.w3.org/2000/svg" xml:space="preserve" width="94.174mm" height="107.451mm" version="1.1" style="shape-rendering:geometricPrecision; text-rendering:geometricPrecision; image-rendering:optimizeQuality; fill-rule:evenodd; clip-rule:evenodd"
viewBox="0 0 1423.3 1623.96">
 <defs>
 </defs>
 <g id="Слой_x0020_1">
  <metadata id="CorelCorpID_0Corel-Layer"/>
  <path class="fil0" d="M623.97 858.16c11.9,-29 24.92,-32.7 36.26,-88.68 21.5,-106.06 -32.07,-189.51 -122.16,-240.88 -68.21,-38.9 -63.73,-89.26 -63.73,-186.11 0,-64.95 -7.13,-188.95 0.01,-246.92l473.58 0c7.88,65.07 1.23,176.86 1.23,246.92 0,93.67 3.38,146.78 -63.04,185.87 -55.73,32.79 -94.28,61.37 -116.55,131.65 -29.45,92.94 4.37,140.86 29.93,198.71l-175.55 -0.54zm420.65 -667.64l94.49 0.99c0,182.39 16.35,192.49 -95.01,192.49l0.52 -193.48zm-760.67 0l80.48 -0.2 15.01 1.19 0.02 191.52 -15.05 0.96 -19.99 0c-40.55,0 -60,-17.25 -60,-57.51l-0.48 -135.97zm-94.52 1246.3c5.45,-7.91 -8.54,-4.83 14.72,-7.29 3.03,-0.32 16.17,0.38 20.32,0.42 51.73,0.52 225.73,-3.34 249.94,2.03l2.27 74.21c-0.04,2.84 -0.12,9.1 -0.52,11.7 -1.07,6.88 -2.06,6.17 -3.69,9.12 -23.94,-0.04 -53.52,-3.43 -71.44,7.6 -19.12,11.77 -27.61,37.09 -17.33,59.97 18.21,40.55 94.08,27.33 140.65,27.33 51.4,0 119.68,11.82 135.81,-28.25 10.19,-25.32 -1.83,-49.2 -16.73,-58.9 -19.83,-12.91 -49.41,-6 -74.13,-9 0,-214.75 26.29,-188.68 -188.68,-188.68l-1.1 -193.48 662.6 0 1.99 193.48c-215.43,0 -189.9,-27.18 -189.9,187.4 -24.41,6.77 -48.63,-3.27 -70.79,8.69 -18.59,10.03 -30.11,33.51 -20.94,58.38 16.19,43.9 90.79,30.36 137.69,30.36 51.99,0 123.55,12.14 139.81,-28.25 10.19,-25.32 -1.83,-49.2 -16.73,-58.9 -19.83,-12.91 -49.41,-6 -74.13,-9l-0.03 -88.94c5.45,-7.91 -8.54,-4.83 14.72,-7.29 34.26,-3.63 264.82,1.24 270.25,2.45 3.55,16 2,33.42 2.01,50.01 0.02,16.76 2.63,33.08 -3.95,45.02 -24.07,-0.04 -53.43,-3.46 -71.28,7.74 -18.83,11.81 -27.51,36.96 -17.18,59.27 18.97,40.96 92.52,27.89 140.34,27.89 44.65,0 119.96,13.27 135.76,-28.33 9.61,-25.3 -1.94,-49.41 -16.77,-58.68 -19.8,-12.37 -49.05,-6.12 -74.04,-9.15 0,-214.87 26.14,-188.68 -188.68,-188.68 -5.39,-44.53 -1.23,-115.58 -1.23,-162.96 0,-150.55 6.37,-125.41 -210.89,-125.41 -55.65,0 -111.31,0 -166.96,0l-2.19 -95.01c47.19,-0 94.17,-0 141.16,-0 34.84,0 105.68,8.39 127.96,-11.46 28.66,-25.52 16.79,-76.94 -24.93,-82.79 -54.08,-7.57 -72.09,-1.96 -107.29,-36.92 -56.16,-55.77 -57.4,-142.33 6.86,-193.61 38.5,-30.72 101.88,-43.32 133.27,-149.68 70.54,-2.07 110.63,0.92 153.58,-39.21 39.75,-37.14 44.42,-78.87 44.39,-149.54 -0.09,-219.87 28.96,-194.9 -189.93,-194.9 0,-100.72 -7.75,-94.97 -119.92,-94.97l-423.82 0c-101.99,0 -120.92,-14.34 -120.92,93.74 -47.51,5.76 -146.36,-13.29 -175.68,15.49 -25.8,25.32 -14.23,136.35 -14.25,180.64 -0.02,66.78 5.35,113.29 42.51,148.38 45.82,43.27 80.79,35.09 155.44,40.82 30.59,97.54 74.9,107.39 131.64,147.87 55.59,39.66 73.85,134.46 9.33,194.76 -32.31,30.2 -54.55,31.94 -103.83,36.83 -41.41,4.11 -61.43,51.81 -30.32,81.21 23.06,21.79 89.2,13.33 126.08,13.33 47.99,0 95.98,0 143.96,0l-0.32 95.02c-66.79,-0.01 -285.07,-3.47 -331.78,0.18 -61.26,4.79 -47.74,66.74 -47.74,121.23 0,50.74 3.77,118.25 -0.99,166.96 -214.71,0 -188.94,-27.29 -188.94,187.4 -24.49,6.79 -48.52,-3.3 -70.83,8.65 -19.17,10.27 -29.02,32.84 -20.78,58.56 13.76,42.99 92.33,30.22 137.58,30.22 52.2,0 123.35,12.24 139.45,-28.46 10.09,-25.51 -1.2,-48.34 -16.5,-58.55 -19.75,-13.18 -49.41,-6.16 -74,-9.13l-0.03 -88.94z"/>
 </g>
</svg>
