<svg width="56" height="83" viewBox="0 0 56 83" fill="none" xmlns="http://www.w3.org/2000/svg">
<path d="M47.6506 24.9183H8.6599C4.55774 24.9183 1.23363 28.2424 1.23363 32.3446L5.25493 75.0686C5.25493 79.1708 8.57904 82.4999 12.6812 82.4999H44.2507C48.3528 82.4999 51.6769 79.1708 51.6769 75.0686L55.0819 32.3446C55.082 28.2424 51.7527 24.9183 47.6506 24.9183ZM18.2535 69.4912C18.2535 71.5372 16.5914 73.2094 14.5403 73.2094C12.4892 73.2094 10.8271 71.5372 10.8271 69.4912V36.0476C10.8271 34.0016 12.4892 32.3395 14.5403 32.3395C16.5914 32.3395 18.2535 33.9966 18.2535 36.0476V69.4912ZM31.2521 69.4912C31.2521 71.5372 29.5901 73.2094 27.5389 73.2094C25.4878 73.2094 23.8257 71.5372 23.8257 69.4912V36.0476C23.8257 34.0016 25.4878 32.3395 27.5389 32.3395C29.5901 32.3395 31.2521 33.9966 31.2521 36.0476V69.4912ZM44.2508 69.4912C44.2508 71.5372 42.5887 73.2094 40.5376 73.2094C38.4865 73.2094 36.8245 71.5372 36.8245 69.4912V36.0476C36.8245 34.0016 38.4866 32.3395 40.5376 32.3395C42.5888 32.3395 44.2508 33.9966 44.2508 36.0476V69.4912ZM6.67457 21.2001L51.6365 9.63626C54.122 8.99974 55.6174 6.46362 54.9759 3.98319C54.3343 1.49769 51.8083 0.00734846 49.3227 0.648937L35.4705 4.21055C34.1923 2.31104 31.8583 1.30067 29.5143 1.90178L24.1188 3.29615C21.7747 3.89736 20.2188 5.90796 20.0117 8.18639L4.36093 12.2128C1.8804 12.8443 0.385086 15.3803 1.0216 17.8608C1.66298 20.3413 4.19404 21.8366 6.67457 21.2001Z" fill="white"/>
</svg>
