<svg width="647" height="745" viewBox="0 0 647 745" fill="none" xmlns="http://www.w3.org/2000/svg">
<path d="M505.636 156.268L501.886 161.895L507.38 165.838C587.214 223.119 639.331 316.455 639.331 422.167C639.331 596.604 497.935 738 323.497 738C149.06 738 7.66406 596.604 7.66406 422.167C7.66406 255.858 136.271 119.897 299.44 107.555L306.282 107.038L305.902 100.187C305.866 99.5418 305.762 99.007 305.672 98.6305C305.669 98.6195 305.667 98.6086 305.664 98.5978V49.6667V42.6667H298.664H248.997C239.151 42.6667 231.164 34.6956 231.164 24.8333C231.164 14.9711 239.151 7 248.997 7H397.997C407.844 7 415.831 14.9711 415.831 24.8333C415.831 34.6956 407.844 42.6667 397.997 42.6667H348.331H341.331V49.6667V98.5535C341.249 98.8693 341.157 99.2963 341.1 99.802L340.3 107.007L347.529 107.555C389.837 110.761 429.748 122.418 465.79 140.621L471.328 143.418L474.77 138.257L503.444 95.2574L503.787 95.4862L507.679 89.7121C511.077 84.6723 516.256 81.5 522.164 81.5C532.011 81.5 539.997 89.471 539.997 99.3333C539.997 102.597 538.785 105.745 536.64 108.943L532.729 114.773L533.119 115.033L505.636 156.268ZM43.3307 422.167C43.3307 576.895 168.769 702.333 323.497 702.333C478.226 702.333 603.664 576.895 603.664 422.167C603.664 267.438 478.226 142 323.497 142C168.769 142 43.3307 267.438 43.3307 422.167Z" fill="white" stroke="white" stroke-width="14"/>
</svg>
