<svg viewBox="0 0 84 84" fill="none" xmlns="http://www.w3.org/2000/svg">
<path d="M63.1948 18.0572L66.7312 12.7512L66.6892 12.7232C66.986 12.2808 67.2016 11.774 67.2016 11.2C67.2016 9.6516 65.9472 8.4 64.4016 8.4C63.43 8.4 62.618 8.9264 62.114 9.674L62.072 9.646L58.4012 15.1508C54.2488 13.0536 49.6484 11.7096 44.7708 11.34C44.7764 11.2896 44.8016 11.2504 44.8016 11.2V5.6H50.4016C51.9472 5.6 53.2016 4.3484 53.2016 2.8C53.2016 1.2516 51.9472 0 50.4016 0H33.6016C32.056 0 30.8016 1.2516 30.8016 2.8C30.8016 4.3484 32.056 5.6 33.6016 5.6H39.2016V11.2C39.2016 11.2504 39.2268 11.2896 39.2296 11.34C20.4248 12.7624 5.60156 28.4312 5.60156 47.6C5.60156 67.704 21.8976 84 42.0016 84C62.1056 84 78.4016 67.704 78.4016 47.6C78.4016 35.4144 72.3928 24.6568 63.1948 18.0572ZM42.0016 78.4C24.9916 78.4 11.2016 64.61 11.2016 47.6C11.2016 30.59 24.9916 16.8 42.0016 16.8C59.0116 16.8 72.8016 30.59 72.8016 47.6C72.8016 64.61 59.0116 78.4 42.0016 78.4Z" fill="white"/>
<path d="M60.7452 28.8568C59.6028 27.7144 57.7492 27.7144 56.6068 28.8568L40.056 45.4048C38.9136 46.5472 38.9136 48.4008 40.056 49.546C41.1984 50.6856 43.0492 50.6856 44.1916 49.546L60.7424 32.9952C61.8848 31.85 61.8848 29.9992 60.7452 28.8568Z" fill="white"/>
</svg>
