<svg width="512" height="512" viewBox="0 0 512 512" fill="none" xmlns="http://www.w3.org/2000/svg">
<g clip-path="url(#clip0_104_163)">
<path d="M459.61 94.159L284.71 6.70902C284.694 6.70202 284.68 6.69302 284.664 6.68602C266.716 -2.23398 245.285 -2.23298 227.293 6.70902L52.4381 94.136C30.4011 105.086 16.7041 127.176 16.6901 151.794V359.861C16.5491 384.489 30.1181 406.666 52.1741 417.779L227.067 505.226C236.092 509.743 245.992 512 255.892 512C265.79 512 275.688 509.742 284.708 505.229L459.563 417.802C481.601 406.852 495.298 384.761 495.31 360.144V151.784C495.299 127.177 481.602 105.088 459.61 94.159ZM453.939 360.135C453.934 368.936 449.035 376.837 441.107 380.776L266.202 468.23C259.746 471.461 252.037 471.461 245.575 468.226L70.7321 380.805C62.8551 376.835 58.0001 368.89 58.0611 360.069C58.0611 360.021 58.0611 359.973 58.0611 359.926V151.806C58.0661 143.003 62.9661 135.102 70.8941 131.162L245.748 43.735C248.958 42.14 252.48 41.342 256.001 41.342C259.519 41.342 263.037 42.138 266.243 43.73L441.153 131.184C449.036 135.101 453.935 143.002 453.939 151.794V360.135Z"/>
<path d="M486.131 118.932C481.022 108.714 468.595 104.573 458.378 109.682L256.001 210.87L53.6231 109.681C43.4041 104.572 30.9791 108.714 25.8711 118.931C20.7611 129.15 24.9041 141.575 35.1211 146.683L246.749 252.5C249.661 253.955 252.83 254.683 256 254.683C259.17 254.683 262.339 253.955 265.25 252.499L476.88 146.684C487.099 141.575 491.24 129.15 486.131 118.932Z"/>
<path d="M256.001 213.312C244.577 213.312 235.316 222.574 235.316 233.997V491.1C235.316 502.525 244.578 511.785 256.001 511.785C267.425 511.785 276.686 502.524 276.686 491.1V233.998C276.686 222.574 267.424 213.312 256.001 213.312Z"/>
<path d="M364.685 168C353.261 168 344 176.734 344 187.507V429.966C344 440.74 353.262 449.473 364.685 449.473C376.109 449.473 385.37 440.739 385.37 429.966V187.508C385.37 176.734 376.108 168 364.685 168Z"/>
<path d="M368.335 61.9404C362.979 51.8498 351.552 47.4303 342.815 52.0683L146.148 156.459C137.409 161.097 134.668 173.038 140.024 183.128C145.38 193.218 156.806 197.638 165.544 193L362.21 88.61C370.948 83.9716 373.691 72.0301 368.335 61.9404Z"/>
<path d="M479.546 254.172C474.211 244.071 462.793 239.628 454.046 244.248L257.168 348.239C248.419 352.86 245.654 364.796 250.989 374.896C256.325 384.998 267.742 389.441 276.49 384.82L473.367 280.829C482.115 276.209 484.882 264.273 479.546 254.172Z"/>
<path d="M26.6228 253.859C31.9193 243.737 43.6885 239.443 52.9084 244.267L260.424 352.852C269.646 357.677 272.826 369.795 267.53 379.916C262.233 390.038 250.465 394.332 241.244 389.507L33.7291 280.923C24.5084 276.098 21.3268 263.98 26.6228 253.859Z"/>
<path d="M134.169 64.7191C139.225 54.4749 150.889 49.9045 160.221 54.5099L370.241 158.167C379.574 162.773 383.039 174.812 377.983 185.055C372.927 195.299 361.263 199.87 351.931 195.264L141.912 91.6079C132.58 87.0021 129.113 74.9624 134.169 64.7191Z"/>
<path d="M145.685 175C134.261 175 125 183.734 125 194.507V436.966C125 447.74 134.262 456.473 145.685 456.473C157.109 456.473 166.37 447.739 166.37 436.966V194.508C166.37 183.734 157.108 175 145.685 175Z"/>
</g>
<defs>
<clipPath id="clip0_104_163">
<rect width="512" height="512" fill="white"/>
</clipPath>
</defs>
</svg>
