<?xml version="1.0" encoding="UTF-8"?>
<!DOCTYPE svg PUBLIC "-//W3C//DTD SVG 1.1//EN" "http://www.w3.org/Graphics/SVG/1.1/DTD/svg11.dtd">
<!-- Creator: CorelDRAW 2019 (64-Bit) -->
<svg xmlns="http://www.w3.org/2000/svg" xml:space="preserve" width="130.169mm" height="120.995mm" version="1.1" style="shape-rendering:geometricPrecision; text-rendering:geometricPrecision; image-rendering:optimizeQuality; fill-rule:evenodd; clip-rule:evenodd"
viewBox="0 0 773.73 719.2">
 <defs>
 </defs>
 <g id="Слой_x0020_1">
  <metadata id="CorelCorpID_0Corel-Layer"/>
  <path class="fil0" d="M45.79 569.61l363.24 -0.41c3.13,27.18 -4.31,49.5 10.11,81.46 2.99,6.62 8.43,13.79 10.72,20.14l-243.32 0.4c-65.81,0 -153.66,16.74 -140.74,-101.59zm595.02 -393.4c-0.71,-25.61 -1.8,-62 0.1,-86.96 1.76,-23.21 19.74,-40.54 44.12,-40.47 24,0.06 41.42,18.22 42.86,42.02 1.54,25.5 0.72,59.5 0,85.41l-87.08 0zm-487.58 344.38c-1.92,-75.29 1.01,-154.36 1.54,-230.01 0.27,-38.26 0.56,-76.53 0.79,-114.79 0.4,-65.93 -13.19,-126.35 45.08,-127.35l401.88 0.41c-10.08,28.18 -10.41,31.46 -10.41,65.61l0 459.17c0,26.3 2.46,44.59 -10.04,65.28 -20.06,33.21 -69.63,45.75 -103.14,13.41 -40.33,-38.92 -7.04,-102.83 -28.24,-124.29 -11.99,-12.14 -49.55,-7.29 -69.18,-7.29 -72.09,0 -159.73,2.05 -228.29,-0.15zm-48.74 -0.26c-36.42,3.67 -86.59,-6.55 -100.51,7.55 -4.72,4.78 -3.93,5.36 -3.93,12.74l0 78.62c0,43.48 35.21,76.13 64.87,90.12 23.74,11.2 40.09,9.79 68.15,9.79l385.26 -0c45.23,-0.06 78.5,-14.69 103.27,-51.66 25.37,-37.87 19.07,-84.05 19.07,-134.73 0,-24.9 -1.41,-290.91 0.46,-307.99 24.59,0 49.18,0 73.76,0 19.94,0 58.84,5.19 58.84,-17.52l0 -133.66c0,-30.4 -39.74,-72.33 -85.56,-73.16 -52.07,-0.94 -105.09,-0 -157.27,-0 -104.83,0 -209.67,0 -314.5,0 -30.8,-0 -43.32,-0.75 -66.68,12.81 -14.76,8.57 -28.9,24.57 -35.89,42.67 -10.6,27.47 -6.77,113.93 -7.01,149.77 -0.35,52.42 -0.76,104.83 -1.12,157.25 -0.36,51.98 0.51,105.6 -1.21,157.41z"/>
  <path class="fil0" d="M526.03 263.85c5.09,-14.42 -4.29,-26.38 -13.87,-30.02 -10.68,-4.06 -238.86,-2.11 -273.77,-1.91 -39.88,0.23 -36.37,39.9 -13.82,47.25 9.21,3 203.32,1.31 227.72,1.31 33.85,0 65.67,6.25 73.75,-16.64z"/>
  <path class="fil0" d="M526.28 457.27c4.52,-14.05 -5.09,-26.04 -14.6,-29.44 -10.28,-3.68 -238.64,-1.89 -273.32,-1.73 -40.53,0.19 -35.16,39.72 -14.19,47.04 9.33,3.26 240.18,1.79 273.77,1.5 15.91,-0.14 24.34,-4.97 28.33,-17.37z"/>
  <path class="fil0" d="M525.65 361.35c4.77,-13.04 -2.73,-26.21 -13.06,-30.3 -10.58,-4.19 -237.08,-1.87 -272.61,-1.95 -43.2,-0.09 -35.98,38.73 -17.4,46.37 11.06,4.55 236.38,2.08 272.16,2.13 16.89,0.02 25.73,-2.11 30.9,-16.25z"/>
  <path class="fil0" d="M380.71 166.36c5.04,-15.69 -6.26,-30.2 -22.78,-31.28 -19.84,-1.3 -84.96,-0.04 -110.06,-0.08 -17.24,-0.03 -33.26,0.34 -38.51,16.46 -5.74,17.61 7.31,30.97 22.79,31.87 22.47,1.31 83.09,0.04 110.06,0.08 19.15,0.03 32.83,0.6 38.49,-17.04z"/>
 </g>
</svg>
